<?xml version="1.0" standalone="no"?>
<!DOCTYPE svg PUBLIC "-//W3C//DTD SVG 20010904//EN"
 "http://www.w3.org/TR/2001/REC-SVG-20010904/DTD/svg10.dtd">
<svg version="1.0" xmlns="http://www.w3.org/2000/svg"
 width="2312.000000pt" height="1340.000000pt" viewBox="0 0 2312.000000 1340.000000"
 preserveAspectRatio="xMidYMid meet">
<metadata>
Created by potrace 1.16, written by Peter Selinger 2001-2019
</metadata>
<g transform="translate(0.000000,1340.000000) scale(0.100000,-0.100000)"
fill="#000000" stroke="none">
<path d="M10784 12840 c-40 -16 -107 -131 -85 -145 12 -7 28 15 36 47 9 36 49
78 75 78 27 0 27 -42 0 -111 -54 -137 -55 -218 -3 -259 31 -24 91 -27 133 -5
l29 15 -14 -41 c-34 -96 -78 -139 -143 -139 -49 0 -71 19 -39 34 30 16 35 61
8 76 -18 9 -25 7 -46 -14 -31 -31 -32 -57 -1 -93 21 -24 31 -28 78 -28 43 0
65 6 104 30 76 48 101 99 158 328 47 191 51 227 24 227 -30 -1 -42 -25 -78
-170 -32 -126 -43 -158 -67 -181 -40 -40 -76 -46 -103 -19 -19 19 -22 30 -17
74 3 28 19 91 36 139 33 96 31 122 -11 151 -25 18 -42 19 -74 6z"/>
<path d="M14255 12527 c-55 -30 -209 -110 -341 -180 -1711 -894 -3661 -2125
-5249 -3312 -170 -128 -315 -238 -321 -246 -6 -8 -179 -855 -384 -1884 -205
-1028 -374 -1871 -375 -1873 -1 -1 -152 -32 -336 -68 -1646 -323 -2728 -665
-3196 -1010 l-28 -20 -888 141 c-488 78 -889 144 -891 146 -4 4 9140 8081
9154 8087 5 2 12 -22 15 -52 4 -31 11 -56 16 -56 5 0 30 42 55 93 25 50 73
129 105 174 32 45 59 84 59 88 0 3 -42 -16 -94 -44 -51 -28 -134 -66 -183 -83
-50 -18 -91 -37 -93 -43 -1 -5 19 -16 44 -24 26 -8 45 -18 44 -23 -2 -4 -1745
-1546 -3874 -3425 -2129 -1880 -4193 -3703 -4588 -4052 l-718 -634 -1025 163
c-768 122 -1027 160 -1036 151 -7 -7 -7 -14 -2 -20 6 -4 461 -80 1013 -167
551 -87 1002 -161 1002 -164 0 -3 -454 -405 -1010 -895 -591 -522 -1008 -896
-1007 -905 1 -8 7 -15 13 -15 6 0 469 405 1029 899 560 495 1028 901 1039 903
14 3 4804 -752 5014 -790 7 -1 -74 -79 -180 -172 -106 -94 -483 -427 -837
-739 l-643 -568 26 -26 26 -26 27 26 c226 208 1669 1468 1682 1468 25 0 4983
-789 4988 -794 2 -2 -367 -331 -821 -732 l-825 -729 21 -23 c12 -12 28 -20 35
-18 7 3 391 340 854 748 462 409 846 746 852 749 8 4 5067 -795 5256 -830 2
-1 -13 -21 -33 -46 -44 -54 -40 -55 86 -26 46 10 132 22 191 26 60 4 105 10
100 14 -4 5 -46 23 -93 41 -47 18 -127 58 -178 88 -51 30 -95 52 -98 50 -2 -3
4 -29 16 -57 l20 -52 -32 6 c-18 3 -1191 190 -2607 415 -1416 225 -2575 411
-2577 412 -1 2 884 786 1968 1743 l1970 1740 257 22 c1310 113 3950 294 5731
393 311 17 575 34 588 36 17 3 22 11 22 34 0 16 -4 31 -10 35 -9 6 -724 -34
-1870 -105 -1562 -97 -3077 -204 -4249 -300 -200 -17 -365 -29 -367 -28 -2 2
4889 4325 4968 4391 l22 18 -27 27 -27 26 -32 -31 c-82 -77 -5000 -4414 -5003
-4411 -5 6 -1275 4076 -1274 4084 0 5 283 259 630 564 l629 554 -24 25 c-22
22 -27 23 -43 10 -10 -8 -288 -252 -617 -543 -515 -454 -601 -526 -608 -510
-5 10 -161 509 -348 1107 -187 599 -342 1093 -346 1098 -12 20 -64 6 -159 -44z
m-260 -1743 c-185 -929 -339 -1699 -343 -1711 -4 -12 -371 -344 -817 -738
-729 -644 -811 -713 -817 -692 -241 756 -926 2972 -921 2978 21 19 651 408
1003 619 614 368 1224 713 1780 1005 124 65 274 144 335 176 60 32 111 56 113
55 2 -2 -148 -764 -333 -1692z m740 521 l315 -1010 -32 -31 c-79 -77 -1261
-1114 -1265 -1110 -3 2 140 733 318 1623 309 1551 323 1616 335 1578 8 -22
155 -494 329 -1050z m-4211 -3090 c-255 -1281 -467 -2332 -472 -2336 -4 -4
-137 -122 -297 -263 l-289 -255 -19 62 c-23 76 -27 80 -59 68 l-26 -10 23 -73
23 -73 -26 -7 c-15 -4 -274 -46 -576 -93 -303 -48 -683 -110 -846 -138 l-296
-52 353 1770 c195 973 357 1777 360 1785 3 10 7 11 10 3 3 -8 12 -9 34 -1 16
5 29 11 29 12 0 2 -9 29 -20 62 -11 32 -18 64 -16 70 10 27 798 604 1296 950
448 311 1269 859 1276 851 1 -1 -207 -1050 -462 -2332z m5185 -27 c347 -1110
631 -2024 631 -2031 0 -11 -25 -16 -97 -21 -364 -25 -1946 -177 -2721 -262
-232 -26 -425 -44 -429 -41 -7 8 616 3144 631 3175 10 20 1346 1206 1352 1200
1 -2 286 -911 633 -2020z m-2395 -820 c-169 -849 -311 -1545 -315 -1549 -9 -5
-391 -51 -395 -47 -1 2 -126 400 -278 886 l-275 882 42 39 c201 183 1521 1341
1524 1337 3 -2 -134 -699 -303 -1548z m2941 -1328 c-36 -34 -3790 -3348 -3792
-3346 -3 3 604 3046 609 3051 12 12 1566 172 2473 254 303 28 568 52 590 54
22 2 62 4 90 5 49 2 49 2 30 -18z m-6256 -462 l-33 -165 -184 -27 c-101 -15
-186 -25 -189 -23 -2 3 93 91 213 196 119 106 218 190 221 188 2 -3 -10 -79
-28 -169z m2985 135 c-61 -323 -614 -3076 -618 -3080 -5 -5 -2736 424 -2743
431 -4 3 2945 2608 2966 2620 11 7 285 46 388 55 8 1 11 -8 7 -26z m-3039
-405 c-3 -13 -104 -517 -224 -1120 -120 -604 -220 -1100 -222 -1102 -5 -5
-2097 328 -2104 335 -3 4 1536 1370 2038 1808 36 32 45 34 245 66 114 18 222
33 240 34 29 1 32 -1 27 -21z m-655 -102 c-90 -86 -1922 -1697 -1927 -1693 -4
4 268 1385 283 1437 3 12 76 28 311 70 278 48 1316 217 1353 219 8 1 0 -13
-20 -33z m-1724 -273 c-3 -10 -71 -351 -152 -758 -81 -407 -150 -743 -153
-747 -5 -6 -3026 468 -3111 488 -22 5 -18 9 45 51 39 25 133 76 210 113 554
270 1507 543 2765 794 445 88 403 82 396 59z"/>
<path d="M8448 8518 c-16 -5 -28 -13 -28 -16 0 -4 11 -41 23 -82 21 -68 26
-75 47 -72 14 1 27 6 31 10 4 4 -5 44 -20 88 -26 81 -26 81 -53 72z"/>
<path d="M8511 8261 c-12 -8 -11 -22 10 -90 13 -45 27 -81 31 -81 4 0 18 4 32
9 l25 10 -27 80 c-26 81 -38 93 -71 72z"/>
<path d="M8598 8013 c-23 -6 -23 -13 3 -100 22 -74 34 -85 68 -64 12 8 11 22
-9 90 -12 45 -28 80 -34 80 -6 -1 -19 -3 -28 -6z"/>
<path d="M8673 7760 l-21 -9 24 -78 c14 -42 27 -79 29 -81 9 -9 55 9 55 21 0
24 -46 151 -56 153 -5 2 -19 -1 -31 -6z"/>
<path d="M8758 7507 l-26 -12 26 -83 c23 -74 28 -82 46 -76 12 3 25 10 29 14
8 7 -28 147 -42 162 -3 3 -18 1 -33 -5z"/>
<path d="M8823 7252 c-9 -6 -6 -28 14 -90 24 -79 26 -82 52 -75 14 3 28 7 30
9 2 2 -7 38 -21 81 -18 60 -28 79 -43 81 -11 1 -25 -1 -32 -6z"/>
<path d="M8908 7003 c-22 -6 -23 3 8 -93 25 -80 26 -82 52 -75 15 4 28 8 30
10 2 2 -8 38 -21 82 -24 76 -33 86 -69 76z"/>
<path d="M8988 6753 c-22 -6 -22 -2 5 -93 24 -76 42 -93 74 -72 16 10 -32 173
-50 171 -7 -1 -20 -3 -29 -6z"/>
<path d="M9073 6500 c-28 -11 -28 -9 3 -102 l25 -77 30 11 c17 6 28 15 26 22
-2 6 -15 44 -28 84 -12 39 -25 72 -28 71 -4 0 -16 -4 -28 -9z"/>
<path d="M9153 6249 c-28 -10 -28 -7 0 -99 19 -62 27 -74 43 -72 43 7 43 8 18
88 -13 43 -27 81 -31 85 -5 4 -18 3 -30 -2z"/>
<path d="M9221 5991 c-13 -8 -12 -21 9 -88 13 -43 25 -79 26 -81 1 -2 13 0 28
4 32 8 32 19 4 106 -22 68 -35 79 -67 59z"/>
<path d="M9303 5743 c-17 -6 -17 -16 8 -100 22 -74 34 -85 68 -64 12 8 10 22
-9 90 -24 80 -31 89 -67 74z"/>
<path d="M19221 5953 c-19 -4 -22 -9 -18 -31 4 -21 -39 -126 -181 -439 -103
-226 -190 -409 -193 -405 -3 4 -39 89 -79 190 -39 100 -74 182 -77 182 -12 0
-122 -96 -122 -107 -1 -18 6 -16 42 11 l32 25 85 -215 c47 -117 91 -214 97
-214 7 0 19 10 27 23 8 12 107 228 221 480 l207 457 1874 0 c1867 0 1874 0
1874 20 0 20 -7 20 -1869 20 -1028 0 -1875 2 -1883 4 -7 2 -24 1 -37 -1z"/>
<path d="M21478 5722 c-27 -8 -48 -19 -48 -23 0 -4 14 -12 30 -18 l30 -10 0
-276 0 -277 -30 -11 c-52 -20 -33 -27 65 -27 52 0 95 3 95 8 0 4 -15 14 -33
22 l-32 15 -3 308 c-2 236 -5 307 -15 306 -6 0 -33 -8 -59 -17z"/>
<path d="M20296 5664 c-3 -9 -6 -74 -6 -145 l0 -129 -140 0 c-133 0 -140 -1
-140 -20 0 -19 7 -20 145 -20 l146 0 -1 -132 c-1 -169 -2 -158 14 -158 22 0
26 24 26 161 l0 129 140 0 c133 0 140 1 140 20 0 19 -7 20 -140 20 l-140 0 0
129 c0 136 -4 161 -25 161 -7 0 -16 -7 -19 -16z"/>
<path d="M21718 5502 c-27 -8 -48 -18 -48 -22 0 -3 14 -11 30 -17 l30 -11 0
-160 c0 -133 -3 -163 -16 -176 -8 -9 -22 -16 -30 -16 -8 0 -14 -4 -14 -10 0
-6 37 -10 90 -10 94 0 111 8 60 27 l-30 11 0 149 0 148 33 22 c35 24 81 43
103 43 8 0 23 -9 34 -20 18 -18 20 -33 20 -181 l0 -161 -30 -11 c-52 -20 -33
-27 65 -27 93 0 124 12 66 25 -38 8 -41 21 -41 195 0 126 -3 149 -20 177 -34
56 -106 57 -185 3 l-45 -31 0 36 c0 40 -3 40 -72 17z"/>
<path d="M16877 5466 c-43 -39 -80 -126 -54 -126 8 0 22 20 31 45 18 45 56 85
82 85 23 0 16 -60 -16 -148 -41 -113 -41 -182 -1 -223 34 -34 92 -39 141 -14
l29 15 -14 -39 c-30 -86 -61 -125 -112 -142 -26 -8 -41 -8 -64 1 -35 15 -36
22 -6 35 16 7 22 18 22 40 0 25 -4 31 -27 33 -18 2 -31 -4 -42 -20 -23 -33
-20 -56 14 -90 29 -28 35 -30 86 -26 39 3 66 13 97 34 69 49 96 107 151 327
47 191 51 227 24 227 -30 -1 -42 -25 -78 -170 -32 -126 -43 -158 -67 -181 -40
-40 -76 -46 -103 -19 -20 20 -22 30 -17 79 4 31 20 94 36 140 24 68 27 89 19
112 -18 54 -86 66 -131 25z"/>
<path d="M19354 5468 c-52 -37 -103 -128 -72 -128 8 0 22 17 31 38 36 82 115
115 146 60 14 -24 13 -36 -16 -153 -17 -69 -39 -138 -48 -151 -20 -30 -58 -49
-81 -40 -16 6 -16 8 0 25 10 11 16 30 14 43 -4 33 -50 37 -72 6 -22 -31 -20
-45 9 -73 35 -36 97 -35 135 3 l28 28 31 -28 c42 -37 97 -38 140 -2 55 46 98
124 69 124 -8 0 -24 -20 -36 -45 -23 -48 -74 -87 -107 -83 -10 2 -26 15 -34
29 -13 23 -12 38 14 149 31 132 55 179 98 194 31 11 45 3 28 -18 -21 -25 -10
-61 21 -64 36 -4 65 36 48 67 -27 51 -106 57 -151 11 -24 -23 -31 -26 -36 -14
-8 21 -57 44 -95 44 -18 0 -47 -10 -64 -22z"/>
<path d="M20904 5468 c-52 -37 -103 -128 -72 -128 8 0 22 17 31 38 36 82 115
115 146 60 14 -24 13 -36 -16 -153 -17 -69 -39 -138 -48 -151 -20 -30 -58 -49
-81 -40 -16 6 -16 8 0 25 10 11 16 30 14 43 -4 33 -50 37 -72 6 -22 -31 -20
-45 9 -73 35 -36 97 -35 135 3 l28 28 31 -28 c42 -37 97 -38 140 -2 55 46 98
124 69 124 -8 0 -24 -20 -36 -45 -23 -48 -74 -87 -107 -83 -10 2 -26 15 -34
29 -13 23 -12 38 14 149 31 132 55 179 98 194 31 11 45 3 28 -18 -21 -25 -10
-61 21 -64 36 -4 65 36 48 67 -27 51 -106 57 -151 11 -24 -23 -31 -26 -36 -14
-8 21 -57 44 -95 44 -18 0 -47 -10 -64 -22z"/>
<path d="M22384 5468 c-52 -37 -103 -128 -72 -128 8 0 22 17 31 38 36 82 115
115 146 60 14 -24 13 -36 -16 -153 -17 -69 -39 -138 -48 -151 -20 -30 -58 -49
-81 -40 -16 6 -16 8 0 25 10 11 16 30 14 43 -4 33 -50 37 -72 6 -22 -31 -20
-45 9 -73 35 -36 97 -35 135 3 l28 28 31 -28 c42 -37 97 -38 140 -2 55 46 98
124 69 124 -8 0 -24 -20 -36 -45 -23 -48 -74 -87 -107 -83 -10 2 -26 15 -34
29 -13 23 -12 38 14 149 31 132 55 179 98 194 31 11 45 3 28 -18 -21 -25 -10
-61 21 -64 36 -4 65 36 48 67 -27 51 -106 57 -151 11 -24 -23 -31 -26 -36 -14
-8 21 -57 44 -95 44 -18 0 -47 -10 -64 -22z"/>
<path d="M17510 5460 c0 -20 7 -20 305 -20 298 0 305 0 305 20 0 20 -7 20
-305 20 -298 0 -305 0 -305 -20z"/>
<path d="M17510 5280 c0 -20 7 -20 305 -20 298 0 305 0 305 20 0 20 -7 20
-305 20 -298 0 -305 0 -305 -20z"/>
<path d="M2298 3936 c-90 -25 -162 -104 -195 -215 -24 -84 -15 -219 22 -299
106 -235 391 -225 487 17 30 76 32 232 4 306 -57 150 -187 228 -318 191z m144
-42 c99 -51 154 -243 117 -412 -15 -72 -66 -152 -114 -180 -57 -33 -131 -27
-183 15 -110 89 -140 320 -62 479 54 111 145 147 242 98z"/>
<path d="M6250 1710 c-14 -11 -51 -25 -82 -31 -37 -7 -58 -17 -58 -25 0 -16
40 -18 88 -5 l32 10 0 -244 c0 -276 3 -265 -80 -265 -32 0 -41 -3 -38 -16 3
-13 25 -15 153 -15 128 0 150 2 153 15 3 13 -6 16 -38 16 -84 0 -80 -15 -80
300 0 301 0 299 -50 260z"/>
<path d="M4584 1508 c-52 -37 -103 -128 -72 -128 8 0 22 17 31 38 36 82 115
115 146 60 14 -24 13 -36 -16 -153 -17 -69 -39 -138 -48 -151 -20 -30 -58 -49
-81 -40 -16 6 -16 8 0 25 10 11 16 30 14 43 -4 33 -50 37 -72 6 -22 -31 -20
-45 9 -73 35 -36 97 -35 135 3 l28 28 31 -28 c42 -37 97 -38 140 -2 55 46 98
124 69 124 -8 0 -24 -20 -36 -45 -23 -48 -74 -87 -107 -83 -10 2 -26 15 -34
29 -13 23 -12 38 14 149 31 132 55 179 98 194 31 11 45 3 28 -18 -21 -25 -10
-61 21 -64 36 -4 65 36 48 67 -27 51 -106 57 -151 11 -24 -23 -31 -26 -36 -14
-8 21 -57 44 -95 44 -18 0 -47 -10 -64 -22z"/>
<path d="M5200 1500 c0 -20 7 -20 305 -20 298 0 305 0 305 20 0 20 -7 20 -305
20 -298 0 -305 0 -305 -20z"/>
<path d="M17665 1379 c-56 -33 -117 -121 -97 -141 6 -6 20 9 38 42 42 78 122
108 146 55 9 -20 6 -46 -16 -137 -15 -62 -33 -127 -41 -145 -17 -39 -57 -67
-85 -58 -18 6 -18 8 -5 21 19 19 19 48 0 64 -20 16 -50 4 -64 -26 -32 -72 82
-116 147 -56 l30 28 31 -28 c42 -37 97 -38 140 -2 55 46 98 124 69 124 -8 0
-24 -20 -36 -45 -22 -45 -71 -85 -104 -85 -10 0 -25 11 -34 25 -16 25 -15 32
15 160 36 150 57 185 111 185 l31 0 -20 -26 c-16 -20 -18 -31 -10 -45 14 -27
55 -24 75 6 21 32 11 61 -28 81 -39 20 -87 12 -118 -21 l-24 -25 -27 26 c-30
29 -93 41 -124 23z"/>
<path d="M5200 1320 c0 -20 7 -20 305 -20 298 0 305 0 305 20 0 20 -7 20 -305
20 -298 0 -305 0 -305 -20z"/>
<path d="M11294 892 c-41 -26 -71 -66 -85 -113 -16 -50 8 -92 49 -87 52 6 61
82 11 95 -26 7 -24 20 9 53 38 38 89 47 136 25 47 -22 69 -65 69 -132 0 -77
-38 -142 -169 -287 -63 -70 -114 -131 -114 -136 0 -6 70 -10 174 -10 l174 0
11 63 c14 84 14 97 -4 97 -10 0 -15 -10 -15 -29 0 -53 -19 -61 -143 -61 l-112
0 132 133 c72 72 136 142 142 154 18 36 13 121 -10 162 -32 58 -80 85 -158 89
-52 2 -73 -1 -97 -16z"/>
<path d="M9714 688 c-52 -37 -103 -128 -72 -128 8 0 22 17 31 38 36 82 115
115 146 60 14 -24 13 -36 -16 -153 -17 -69 -39 -138 -48 -151 -20 -30 -58 -49
-81 -40 -16 6 -16 8 0 25 10 11 16 30 14 43 -4 33 -50 37 -72 6 -22 -31 -20
-45 9 -73 35 -36 97 -35 135 3 l28 28 31 -28 c42 -37 97 -38 140 -2 55 46 98
124 69 124 -8 0 -24 -20 -36 -45 -23 -48 -74 -87 -107 -83 -10 2 -26 15 -34
29 -13 23 -12 38 14 149 31 132 55 179 98 194 31 11 45 3 28 -18 -21 -25 -10
-61 21 -64 36 -4 65 36 48 67 -27 51 -106 57 -151 11 -24 -23 -31 -26 -36 -14
-8 21 -57 44 -95 44 -18 0 -47 -10 -64 -22z"/>
<path d="M10330 690 c0 -20 7 -20 305 -20 298 0 305 0 305 20 0 20 -7 20 -305
20 -298 0 -305 0 -305 -20z"/>
<path d="M10330 510 c0 -20 7 -20 305 -20 298 0 305 0 305 20 0 20 -7 20 -305
20 -298 0 -305 0 -305 -20z"/>
</g>
</svg>
